<svg xmlns="http://www.w3.org/2000/svg" viewBox="0 0 486.74 208.46"><defs><style>.cls-1{fill:#0e2f3b;stroke:#e6e7e8;stroke-width:5.67px;}.cls-1,.cls-3{stroke-miterlimit:10;}.cls-2{fill:#fff;}.cls-3{fill:none;stroke:#fff;stroke-width:1.13px;}.cls-4{fill:#231f20;}</style></defs><title>Logotyp (poziomo)</title><g id="Logo"><rect class="cls-1" x="33.37" y="33.37" width="141.73" height="141.73" transform="translate(-43.18 104.23) rotate(-45)"/><path class="cls-2" d="M97.77,60.62h1.68a6.3,6.3,0,0,0,.66,0,2.3,2.3,0,0,0,.51-.11,1.44,1.44,0,0,0,.42-.23,4.83,4.83,0,0,0,.41-.37l11.44-11.76a1.68,1.68,0,0,1,.59-.46,1.8,1.8,0,0,1,.69-.12h1.64L103.43,60.26a5.83,5.83,0,0,1-.67.62,2.67,2.67,0,0,1-.65.36,2.37,2.37,0,0,1,.76.37,4.09,4.09,0,0,1,.68.65l13,13.62h-1.66a1.6,1.6,0,0,1-.75-.13,1.58,1.58,0,0,1-.45-.41l-12-12.26q-.22-.22-.41-.38a1.9,1.9,0,0,0-1-.43,5.15,5.15,0,0,0-.79,0H97.77V75.88H95.7V47.54h2.06Z" transform="translate(-0.01 0)"/><path class="cls-2" d="M157.69,90.09v28.34h-1a.91.91,0,0,1-.43-.09A1,1,0,0,1,156,118l-18.4-24.59q.06.6.06,1.14v23.85h-1.8V90.09h1a1,1,0,0,1,.43.07,1,1,0,0,1,.33.31L156,115q-.06-.6-.06-1.14V90.09Z" transform="translate(-0.01 0)"/><path class="cls-2" d="M124.08,132.57l-8.91,28.34h-1.84L105,136.31q-.16-.5-.28-1-.12.54-.28,1L96,160.91H94.18l-8.93-28.34H87a.7.7,0,0,1,.74.54l7.15,23.29q.22.8.4,1.82.1-.52.2-1a7.58,7.58,0,0,1,.24-.85l8-23.29a.86.86,0,0,1,.28-.38.75.75,0,0,1,.48-.16H105a.7.7,0,0,1,.46.15,1,1,0,0,1,.28.39l8,23.29a7.46,7.46,0,0,1,.25.84q.11.46.21,1l.19-1q.09-.45.19-.85l7.15-23.29a.71.71,0,0,1,.27-.38.79.79,0,0,1,.49-.16Z" transform="translate(-0.01 0)"/><path class="cls-2" d="M73.7,104.24a16.78,16.78,0,0,1-1,5.91A12.76,12.76,0,0,1,70,114.62a12,12,0,0,1-4.28,2.82,14.88,14.88,0,0,1-5.5,1H49.83V90.09H60.18a14.88,14.88,0,0,1,5.5,1A12,12,0,0,1,70,93.89a12.76,12.76,0,0,1,2.76,4.47A16.72,16.72,0,0,1,73.7,104.24Zm-2.12,0A15.83,15.83,0,0,0,70.76,99,11,11,0,0,0,68.44,95a9.92,9.92,0,0,0-3.6-2.44,12.4,12.4,0,0,0-4.65-.84H51.89v25h8.29a12.4,12.4,0,0,0,4.65-.84,9.92,9.92,0,0,0,3.6-2.44,11,11,0,0,0,2.32-3.93A15.89,15.89,0,0,0,71.58,104.24Z" transform="translate(-0.01 0)"/><line class="cls-3" x1="64.14" y1="144.3" x2="144.32" y2="64.12"/><line class="cls-3" x1="144.32" y1="144.3" x2="64.14" y2="64.12"/></g><g id="Napis"><path class="cls-4" d="M242.06,76.76h1.68a6.46,6.46,0,0,0,.66,0,2.32,2.32,0,0,0,.51-.11,1.41,1.41,0,0,0,.42-.23,4.82,4.82,0,0,0,.41-.37l11.43-11.76a1.69,1.69,0,0,1,.59-.46,1.8,1.8,0,0,1,.69-.12h1.64L247.72,76.4a5.78,5.78,0,0,1-.67.62,2.61,2.61,0,0,1-.65.36,2.37,2.37,0,0,1,.76.37,4.14,4.14,0,0,1,.68.65l13,13.62h-1.66a1.6,1.6,0,0,1-.75-.13,1.59,1.59,0,0,1-.45-.41L246,79.22q-.22-.22-.41-.38a2,2,0,0,0-.42-.27,2,2,0,0,0-.54-.16,5.17,5.17,0,0,0-.79,0h-1.82V92H240V63.68h2.06Z" transform="translate(-0.01 0)"/><path class="cls-4" d="M270.84,71.77a9.58,9.58,0,0,1,3.83.73,7.83,7.83,0,0,1,2.85,2.07,9.21,9.21,0,0,1,1.77,3.23,15,15,0,0,1,0,8.46,9.21,9.21,0,0,1-1.77,3.22,7.73,7.73,0,0,1-2.85,2.06,10.56,10.56,0,0,1-7.67,0,7.82,7.82,0,0,1-2.86-2.06,9.11,9.11,0,0,1-1.78-3.22,15,15,0,0,1,0-8.46,9.11,9.11,0,0,1,1.78-3.23A7.93,7.93,0,0,1,267,72.51,9.58,9.58,0,0,1,270.84,71.77Zm0,19a7.39,7.39,0,0,0,3.11-.61,5.9,5.9,0,0,0,2.22-1.75,7.72,7.72,0,0,0,1.33-2.75,15,15,0,0,0,0-7.22,7.82,7.82,0,0,0-1.33-2.77,6,6,0,0,0-2.22-1.77,8.12,8.12,0,0,0-6.23,0,6,6,0,0,0-2.22,1.77,8,8,0,0,0-1.34,2.77,14.67,14.67,0,0,0,0,7.22,7.85,7.85,0,0,0,1.34,2.75,5.9,5.9,0,0,0,2.22,1.75A7.39,7.39,0,0,0,270.84,90.78Z" transform="translate(-0.01 0)"/><path class="cls-4" d="M292.8,72.46v1a.88.88,0,0,1-.07.37.56.56,0,0,1-.31.25l-3.6,1.68V92H286.9V76.52L283,78.32v-1A.74.74,0,0,1,283,77a.6.6,0,0,1,.29-.23L286.9,75V62.88h1.92V74.26Z" transform="translate(-0.01 0)"/><path class="cls-4" d="M304.5,71.77a9.58,9.58,0,0,1,3.83.73,7.83,7.83,0,0,1,2.85,2.07A9.21,9.21,0,0,1,313,77.81a15,15,0,0,1,0,8.46,9.21,9.21,0,0,1-1.77,3.22,7.73,7.73,0,0,1-2.85,2.06,10.56,10.56,0,0,1-7.67,0,7.82,7.82,0,0,1-2.86-2.06A9.11,9.11,0,0,1,296,86.27a15,15,0,0,1,0-8.46,9.11,9.11,0,0,1,1.78-3.23,7.93,7.93,0,0,1,2.86-2.07A9.58,9.58,0,0,1,304.5,71.77Zm0,19a7.39,7.39,0,0,0,3.11-.61,5.9,5.9,0,0,0,2.22-1.75,7.72,7.72,0,0,0,1.33-2.75,15,15,0,0,0,0-7.22,7.82,7.82,0,0,0-1.33-2.77,6,6,0,0,0-2.22-1.77,8.12,8.12,0,0,0-6.23,0,6,6,0,0,0-2.22,1.77,8,8,0,0,0-1.34,2.77,14.67,14.67,0,0,0,0,7.22,7.85,7.85,0,0,0,1.34,2.75,5.9,5.9,0,0,0,2.22,1.75A7.39,7.39,0,0,0,304.5,90.78Z" transform="translate(-0.01 0)"/><path class="cls-4" d="M352.6,63.68V92h-1a.92.92,0,0,1-.43-.09,1,1,0,0,1-.33-.31L332.48,67q.06.6.06,1.14V92h-1.8V63.68h1a1,1,0,0,1,.43.07,1,1,0,0,1,.33.31L350.88,88.6a11.2,11.2,0,0,1-.06-1.14V63.68Z" transform="translate(-0.01 0)"/><path class="cls-4" d="M358.81,74.92a11.58,11.58,0,0,1,3.28-2.36,9.16,9.16,0,0,1,3.91-.8,7.12,7.12,0,0,1,2.8.51,5.18,5.18,0,0,1,2,1.46A6.39,6.39,0,0,1,372,76a10.61,10.61,0,0,1,.4,3V92h-.76a.69.69,0,0,1-.74-.56l-.28-2.56A21.2,21.2,0,0,1,369,90.34a9.86,9.86,0,0,1-1.69,1.08,8.67,8.67,0,0,1-1.9.68,9.79,9.79,0,0,1-2.24.24,6.62,6.62,0,0,1-2-.3,5,5,0,0,1-1.71-.92,4.45,4.45,0,0,1-1.2-1.59,5.5,5.5,0,0,1-.45-2.33,4.14,4.14,0,0,1,.72-2.34A5.91,5.91,0,0,1,360.77,83a15,15,0,0,1,4-1.28,34.35,34.35,0,0,1,5.8-.56V79a6.67,6.67,0,0,0-1.19-4.25,4.25,4.25,0,0,0-3.54-1.49,6.68,6.68,0,0,0-2.45.4,8.69,8.69,0,0,0-1.71.88,10.58,10.58,0,0,0-1.14.88,1.24,1.24,0,0,1-.74.4.6.6,0,0,1-.36-.1.89.89,0,0,1-.24-.26Zm11.72,7.47a37.51,37.51,0,0,0-4.9.45,14.1,14.1,0,0,0-3.38,1,5.05,5.05,0,0,0-2,1.43,3,3,0,0,0-.64,1.89,4.19,4.19,0,0,0,.33,1.73,3.38,3.38,0,0,0,.88,1.2,3.51,3.51,0,0,0,1.27.69,5.12,5.12,0,0,0,1.5.22,8.53,8.53,0,0,0,2.13-.25,7.88,7.88,0,0,0,1.8-.7,8.74,8.74,0,0,0,1.55-1.07q.72-.62,1.42-1.34Z" transform="translate(-0.01 0)"/><path class="cls-4" d="M394.22,72.09V92h-1.06a.54.54,0,0,1-.58-.52l-.18-3a11.31,11.31,0,0,1-3.19,2.76,8,8,0,0,1-4,1,7.46,7.46,0,0,1-2.9-.52,5.32,5.32,0,0,1-2.06-1.5A6.64,6.64,0,0,1,379,88a10.72,10.72,0,0,1-.42-3.12V72.09h1.92V84.83a6.82,6.82,0,0,0,1.28,4.4,4.71,4.71,0,0,0,3.91,1.59,7.08,7.08,0,0,0,3.63-1,10.27,10.27,0,0,0,3-2.75v-15Z" transform="translate(-0.01 0)"/><path class="cls-4" d="M402.69,62.88V80.65h.92a1.72,1.72,0,0,0,.53-.08,1.46,1.46,0,0,0,.55-.38l8-7.59a1.52,1.52,0,0,1,.44-.37,1.25,1.25,0,0,1,.6-.13h1.68l-8.79,8.35a3,3,0,0,1-.78.66,2.45,2.45,0,0,1,.55.37,4.11,4.11,0,0,1,.45.49L416.07,92h-1.66a1.4,1.4,0,0,1-.51-.09,1,1,0,0,1-.43-.37l-8.37-9a2.65,2.65,0,0,0-.31-.3,1.42,1.42,0,0,0-.31-.19,1.44,1.44,0,0,0-.37-.1,3.78,3.78,0,0,0-.51,0h-.9V92h-1.92V62.88Z" transform="translate(-0.01 0)"/><path class="cls-4" d="M426.44,71.77a9.58,9.58,0,0,1,3.83.73,7.83,7.83,0,0,1,2.85,2.07,9.21,9.21,0,0,1,1.77,3.23,15,15,0,0,1,0,8.46,9.21,9.21,0,0,1-1.77,3.22,7.73,7.73,0,0,1-2.85,2.06,10.56,10.56,0,0,1-7.67,0,7.82,7.82,0,0,1-2.86-2.06A9.11,9.11,0,0,1,418,86.27a15,15,0,0,1,0-8.46,9.11,9.11,0,0,1,1.78-3.23,7.93,7.93,0,0,1,2.86-2.07A9.58,9.58,0,0,1,426.44,71.77Zm0,19a7.39,7.39,0,0,0,3.11-.61,5.9,5.9,0,0,0,2.22-1.75,7.72,7.72,0,0,0,1.33-2.75,15,15,0,0,0,0-7.22,7.82,7.82,0,0,0-1.33-2.77,6,6,0,0,0-2.22-1.77,8.12,8.12,0,0,0-6.23,0,6,6,0,0,0-2.22,1.77,8,8,0,0,0-1.34,2.77,14.67,14.67,0,0,0,0,7.22,7.85,7.85,0,0,0,1.34,2.75,5.9,5.9,0,0,0,2.22,1.75A7.39,7.39,0,0,0,426.44,90.78Z" transform="translate(-0.01 0)"/><path class="cls-4" d="M467,72.09,460.35,92h-1.42q-.34,0-.46-.42L453,75.42c-.07-.2-.13-.4-.18-.6s-.1-.4-.14-.6a8,8,0,0,1-.3,1.2L446.87,91.6a.49.49,0,0,1-.48.42H445l-6.65-19.93h1.44a.7.7,0,0,1,.46.15.74.74,0,0,1,.24.33l5,15.72q.12.46.22.89c.07.29.12.57.16.85l.24-.85c.08-.29.17-.58.28-.89l5.33-15.86a.55.55,0,0,1,.56-.44h.78a.57.57,0,0,1,.58.44L459,88.3l.26.88q.12.42.22.84.08-.42.17-.84c.06-.28.14-.57.23-.88l5.07-15.72a.73.73,0,0,1,.26-.35.7.7,0,0,1,.42-.13Z" transform="translate(-0.01 0)"/><path class="cls-4" d="M471.72,81.27v.38a13.49,13.49,0,0,0,.52,3.95,8.07,8.07,0,0,0,1.48,2.85A6.11,6.11,0,0,0,476,90.18a7.7,7.7,0,0,0,3,.58,9.13,9.13,0,0,0,2.6-.33,9.69,9.69,0,0,0,1.85-.74,10.05,10.05,0,0,0,1.19-.74,1.36,1.36,0,0,1,.64-.33.46.46,0,0,1,.4.2l.52.64A5.45,5.45,0,0,1,485,90.58a9.14,9.14,0,0,1-1.76.89,12.79,12.79,0,0,1-2.08.59,11.41,11.41,0,0,1-2.23.22,9.49,9.49,0,0,1-3.73-.71,7.89,7.89,0,0,1-2.88-2.07,9.43,9.43,0,0,1-1.85-3.33,14.41,14.41,0,0,1-.65-4.52,12.32,12.32,0,0,1,.61-4,9.07,9.07,0,0,1,1.76-3.12A8,8,0,0,1,475,72.52a9.28,9.28,0,0,1,3.8-.74,8.3,8.3,0,0,1,3.12.58,7.08,7.08,0,0,1,2.5,1.69,8,8,0,0,1,1.67,2.73,10.55,10.55,0,0,1,.61,3.72,1.07,1.07,0,0,1-.12.6.47.47,0,0,1-.4.16ZM485,80a8.56,8.56,0,0,0-.45-2.87A6.12,6.12,0,0,0,483.3,75a5.56,5.56,0,0,0-2-1.35,6.43,6.43,0,0,0-2.49-.47,7.5,7.5,0,0,0-2.76.48A6.06,6.06,0,0,0,474,75.06a6.91,6.91,0,0,0-1.43,2.16,10.07,10.07,0,0,0-.72,2.82Z" transform="translate(-0.01 0)"/><path class="cls-4" d="M278.74,111.75l-8.91,28.34H268l-8.37-24.59q-.16-.5-.28-1-.12.54-.28,1l-8.39,24.59h-1.82l-8.93-28.34h1.7a.7.7,0,0,1,.74.54l7.15,23.29q.22.8.4,1.82c.07-.35.13-.67.2-1a7.39,7.39,0,0,1,.24-.85l8-23.29a.87.87,0,0,1,.28-.38.75.75,0,0,1,.48-.16h.56a.7.7,0,0,1,.46.15,1,1,0,0,1,.28.39l8,23.29a7.59,7.59,0,0,1,.25.84q.11.46.21,1l.19-1c.06-.3.12-.58.19-.85l7.15-23.29a.71.71,0,0,1,.27-.38.79.79,0,0,1,.49-.16Z" transform="translate(-0.01 0)"/><path class="cls-4" d="M281.64,129.33v.38a13.49,13.49,0,0,0,.52,3.95,8.07,8.07,0,0,0,1.48,2.85,6.11,6.11,0,0,0,2.32,1.73,7.7,7.7,0,0,0,3,.58,9.13,9.13,0,0,0,2.6-.33,9.69,9.69,0,0,0,1.85-.74,10.05,10.05,0,0,0,1.19-.74,1.36,1.36,0,0,1,.64-.33.46.46,0,0,1,.4.2l.52.64a5.45,5.45,0,0,1-1.27,1.12,9.14,9.14,0,0,1-1.76.89,12.79,12.79,0,0,1-2.08.59,11.41,11.41,0,0,1-2.23.22,9.49,9.49,0,0,1-3.73-.71,7.89,7.89,0,0,1-2.88-2.07,9.43,9.43,0,0,1-1.85-3.33,14.41,14.41,0,0,1-.65-4.52,12.32,12.32,0,0,1,.61-4,9.07,9.07,0,0,1,1.76-3.12,8,8,0,0,1,2.82-2.05,9.28,9.28,0,0,1,3.8-.74,8.3,8.3,0,0,1,3.12.58,7.08,7.08,0,0,1,2.5,1.69,8,8,0,0,1,1.67,2.73,10.55,10.55,0,0,1,.61,3.72,1.07,1.07,0,0,1-.12.6.47.47,0,0,1-.4.16Zm13.3-1.22a8.56,8.56,0,0,0-.45-2.87,6.12,6.12,0,0,0-1.27-2.15,5.56,5.56,0,0,0-2-1.35,6.43,6.43,0,0,0-2.49-.47,7.5,7.5,0,0,0-2.76.48,6.06,6.06,0,0,0-2.11,1.38,6.91,6.91,0,0,0-1.43,2.16,10.07,10.07,0,0,0-.72,2.82Z" transform="translate(-0.01 0)"/><path class="cls-4" d="M303.77,123.62a10,10,0,0,1,3-2.77,7.92,7.92,0,0,1,4-1,7.57,7.57,0,0,1,3.22.66,6.62,6.62,0,0,1,2.41,1.9,8.68,8.68,0,0,1,1.51,3.05,14.93,14.93,0,0,1,.52,4.12,15.73,15.73,0,0,1-.58,4.42,9.94,9.94,0,0,1-1.69,3.4,7.61,7.61,0,0,1-2.71,2.18,8.36,8.36,0,0,1-3.67.77,7.47,7.47,0,0,1-3.62-.81,7.34,7.34,0,0,1-2.57-2.41l-.14,2.46a.5.5,0,0,1-.54.5h-1.16V110.95h1.92Zm0,12.12a6.86,6.86,0,0,0,2.55,2.41,7,7,0,0,0,3.13.69,7.11,7.11,0,0,0,3.11-.64,6,6,0,0,0,2.22-1.83,8.22,8.22,0,0,0,1.33-2.89,15.28,15.28,0,0,0,.44-3.83q0-4.13-1.64-6.21a5.53,5.53,0,0,0-4.61-2.08,6.67,6.67,0,0,0-3.71,1,10.27,10.27,0,0,0-2.84,2.84Z" transform="translate(-0.01 0)"/><path class="cls-4" d="M359.56,125.91a16.77,16.77,0,0,1-1,5.91,12.76,12.76,0,0,1-2.76,4.47,12,12,0,0,1-4.28,2.82,14.89,14.89,0,0,1-5.5,1H335.69V111.75H346a14.89,14.89,0,0,1,5.5,1,12,12,0,0,1,4.28,2.82,12.76,12.76,0,0,1,2.76,4.47A16.71,16.71,0,0,1,359.56,125.91Zm-2.12,0a15.8,15.8,0,0,0-.82-5.29,11,11,0,0,0-2.32-3.92,9.91,9.91,0,0,0-3.6-2.44,12.39,12.39,0,0,0-4.65-.84h-8.29v25H346a12.41,12.41,0,0,0,4.65-.84,9.91,9.91,0,0,0,3.6-2.44,11,11,0,0,0,2.32-3.93A15.86,15.86,0,0,0,357.44,125.91Z" transform="translate(-0.01 0)"/><path class="cls-4" d="M365.61,129.33v.38a13.49,13.49,0,0,0,.52,3.95,8.07,8.07,0,0,0,1.48,2.85,6.11,6.11,0,0,0,2.32,1.73,7.7,7.7,0,0,0,3,.58,9.13,9.13,0,0,0,2.6-.33,9.69,9.69,0,0,0,1.85-.74,10.05,10.05,0,0,0,1.19-.74,1.36,1.36,0,0,1,.64-.33.46.46,0,0,1,.4.2l.52.64a5.45,5.45,0,0,1-1.27,1.12,9.14,9.14,0,0,1-1.76.89,12.79,12.79,0,0,1-2.08.59,11.41,11.41,0,0,1-2.23.22,9.49,9.49,0,0,1-3.73-.71,7.89,7.89,0,0,1-2.88-2.07,9.43,9.43,0,0,1-1.85-3.33,14.41,14.41,0,0,1-.65-4.52,12.32,12.32,0,0,1,.61-4,9.07,9.07,0,0,1,1.76-3.12,8,8,0,0,1,2.82-2.05,9.28,9.28,0,0,1,3.8-.74,8.3,8.3,0,0,1,3.12.58,7.08,7.08,0,0,1,2.5,1.69,8,8,0,0,1,1.67,2.73,10.55,10.55,0,0,1,.61,3.72,1.07,1.07,0,0,1-.12.6.47.47,0,0,1-.4.16Zm13.3-1.22a8.56,8.56,0,0,0-.45-2.87,6.12,6.12,0,0,0-1.27-2.15,5.56,5.56,0,0,0-2-1.35,6.43,6.43,0,0,0-2.49-.47,7.5,7.5,0,0,0-2.76.48,6.06,6.06,0,0,0-2.11,1.38,6.91,6.91,0,0,0-1.43,2.16,10.07,10.07,0,0,0-.72,2.82Z" transform="translate(-0.01 0)"/><path class="cls-4" d="M396.77,122.62a.51.51,0,0,1-.46.28,1,1,0,0,1-.56-.25,8.24,8.24,0,0,0-.91-.56,7.48,7.48,0,0,0-1.41-.56,7.23,7.23,0,0,0-2-.25,6,6,0,0,0-2,.31,4.88,4.88,0,0,0-1.52.83,3.65,3.65,0,0,0-1,1.21,3.24,3.24,0,0,0-.34,1.45,2.48,2.48,0,0,0,.48,1.56,4.18,4.18,0,0,0,1.25,1.06,9.29,9.29,0,0,0,1.77.76l2,.64q1,.32,2,.71a7.37,7.37,0,0,1,1.77,1,4.66,4.66,0,0,1,1.25,1.42,4.06,4.06,0,0,1,.48,2,6.31,6.31,0,0,1-.46,2.42,5.39,5.39,0,0,1-1.35,1.94,6.52,6.52,0,0,1-2.19,1.3,8.59,8.59,0,0,1-3,.48,8.94,8.94,0,0,1-3.62-.67,10.18,10.18,0,0,1-2.72-1.75l.44-.68a.72.72,0,0,1,.23-.24.66.66,0,0,1,.35-.08,1.06,1.06,0,0,1,.63.32,7.08,7.08,0,0,0,1,.69,8.55,8.55,0,0,0,1.53.69,6.85,6.85,0,0,0,2.25.32,6.48,6.48,0,0,0,2.22-.35,4.62,4.62,0,0,0,1.6-1,4,4,0,0,0,1-1.41,4.51,4.51,0,0,0,.33-1.71,2.75,2.75,0,0,0-.48-1.66,4.12,4.12,0,0,0-1.26-1.12,8.85,8.85,0,0,0-1.77-.78l-2-.64q-1-.32-2-.7a7.34,7.34,0,0,1-1.77-1,4.63,4.63,0,0,1-1.26-1.41,4.08,4.08,0,0,1-.48-2.07,4.75,4.75,0,0,1,.46-2,5.18,5.18,0,0,1,1.31-1.72,6.47,6.47,0,0,1,2.07-1.18,8.07,8.07,0,0,1,2.74-.44,9.32,9.32,0,0,1,3.23.52,7.64,7.64,0,0,1,2.57,1.6Z" transform="translate(-0.01 0)"/><path class="cls-4" d="M405.79,113.29a1.51,1.51,0,0,1-.15.67,2,2,0,0,1-.39.55,1.83,1.83,0,0,1-.56.38,1.73,1.73,0,0,1-1.36,0,1.83,1.83,0,0,1-.94-.93,1.6,1.6,0,0,1-.14-.67,1.74,1.74,0,0,1,.14-.69,1.77,1.77,0,0,1,.38-.57,1.82,1.82,0,0,1,.56-.38,1.72,1.72,0,0,1,1.36,0,1.82,1.82,0,0,1,.56.38,1.93,1.93,0,0,1,.39.57A1.64,1.64,0,0,1,405.79,113.29Zm-.82,6.87v19.93h-1.9V120.16Z" transform="translate(-0.01 0)"/><path class="cls-4" d="M427.8,121v.66q0,.44-.56.54l-3,.22a5.82,5.82,0,0,1,.86,1.7,6.69,6.69,0,0,1,.3,2,6.49,6.49,0,0,1-.51,2.61,5.71,5.71,0,0,1-1.44,2,6.6,6.6,0,0,1-2.24,1.29,8.67,8.67,0,0,1-2.89.46,8.87,8.87,0,0,1-3.1-.52,4.32,4.32,0,0,0-1.33,1.13,2.15,2.15,0,0,0-.49,1.29,1.56,1.56,0,0,0,.61,1.32,4,4,0,0,0,1.6.67,14.39,14.39,0,0,0,2.26.27l2.59.13q1.32.07,2.59.25a8.26,8.26,0,0,1,2.26.63,4.07,4.07,0,0,1,1.6,1.26,3.49,3.49,0,0,1,.61,2.15,4.93,4.93,0,0,1-.62,2.38,6.31,6.31,0,0,1-1.79,2,9.44,9.44,0,0,1-2.83,1.41,12.23,12.23,0,0,1-3.73.53,14.15,14.15,0,0,1-3.68-.43,8.79,8.79,0,0,1-2.65-1.16,5.08,5.08,0,0,1-1.61-1.69,4.1,4.1,0,0,1-.54-2,3.87,3.87,0,0,1,1-2.71,7,7,0,0,1,2.84-1.77,3.87,3.87,0,0,1-1.61-1,2.48,2.48,0,0,1-.61-1.77,2.69,2.69,0,0,1,.16-.88,3.69,3.69,0,0,1,.48-.91,5,5,0,0,1,.78-.85,6,6,0,0,1,1-.72,5.93,5.93,0,0,1-2.21-2.18,6.21,6.21,0,0,1-.79-3.18,6.49,6.49,0,0,1,.51-2.61,5.76,5.76,0,0,1,1.45-2,6.66,6.66,0,0,1,2.25-1.3,9.44,9.44,0,0,1,5.35-.14,7.23,7.23,0,0,1,2,.9Zm-2.08,20.39a2.24,2.24,0,0,0-.49-1.51,3.24,3.24,0,0,0-1.31-.89,7.85,7.85,0,0,0-1.89-.45q-1.07-.13-2.24-.19l-2.35-.12a18.59,18.59,0,0,1-2.22-.24,9.17,9.17,0,0,0-1.4.69,5.05,5.05,0,0,0-1.1.89,3.94,3.94,0,0,0-.72,1.09,3.2,3.2,0,0,0,.19,2.9,4,4,0,0,0,1.32,1.3,7.36,7.36,0,0,0,2.13.87,11.84,11.84,0,0,0,2.9.32,11.28,11.28,0,0,0,2.83-.34,7.9,7.9,0,0,0,2.28-1,4.89,4.89,0,0,0,1.52-1.48A3.43,3.43,0,0,0,425.71,141.43Zm-7.45-10.15a6.55,6.55,0,0,0,2.28-.37,4.74,4.74,0,0,0,1.68-1,4.42,4.42,0,0,0,1-1.58,5.56,5.56,0,0,0,.36-2,5.5,5.5,0,0,0-.37-2.05,4.44,4.44,0,0,0-1.06-1.59,4.74,4.74,0,0,0-1.68-1,7.22,7.22,0,0,0-4.51,0,4.74,4.74,0,0,0-1.68,1,4.34,4.34,0,0,0-1.05,1.59,5.64,5.64,0,0,0-.36,2.05,5.56,5.56,0,0,0,.36,2,4.36,4.36,0,0,0,1.05,1.58,4.85,4.85,0,0,0,1.68,1A6.4,6.4,0,0,0,418.26,131.27Z" transform="translate(-0.01 0)"/><path class="cls-4" d="M434,123.64a11.31,11.31,0,0,1,3.19-2.76,8,8,0,0,1,4-1,7.5,7.5,0,0,1,2.89.52,5.32,5.32,0,0,1,2.07,1.5,6.64,6.64,0,0,1,1.24,2.36,10.73,10.73,0,0,1,.42,3.13v12.74H446V127.35a6.83,6.83,0,0,0-1.28-4.4,4.71,4.71,0,0,0-3.91-1.59,7.07,7.07,0,0,0-3.63,1,10.27,10.27,0,0,0-3,2.75v15H432.2V120.16h1.06a.53.53,0,0,1,.58.5Z" transform="translate(-0.01 0)"/><path class="cls-4" d="M469.69,120.16v19.93h-1.06a.54.54,0,0,1-.58-.52l-.18-3a11.31,11.31,0,0,1-3.19,2.76,8,8,0,0,1-4,1,7.46,7.46,0,0,1-2.9-.52,5.32,5.32,0,0,1-2.06-1.5,6.64,6.64,0,0,1-1.24-2.36,10.72,10.72,0,0,1-.42-3.12V120.16h1.92V132.9a6.82,6.82,0,0,0,1.28,4.4,4.71,4.71,0,0,0,3.91,1.59,7.08,7.08,0,0,0,3.63-1,10.27,10.27,0,0,0,3-2.75v-15Z" transform="translate(-0.01 0)"/></g></svg>